<svg xmlns="http://www.w3.org/2000/svg" width="240" height="240" viewBox="0 0 240 240" fill="none" shape-rendering="geometricPrecision">
  <defs>
    <linearGradient id="teep-purple" x1="0" y1="0" x2="1" y2="1">
      <stop offset="0" stop-color="#5B1FF2"/>
      <stop offset="0.48" stop-color="#6324EB"/>
      <stop offset="1" stop-color="#A78BFA"/>
    </linearGradient>
  </defs>
  <rect x="12" y="12" width="216" height="216" rx="48" fill="#080D35"/>
  <g transform="translate(31 26) scale(0.78) translate(-250 -170)">
  <path d="M 295.860 179.458 C 272.230 185.971, 257.070 209.461, 260.842 233.720 C 264.434 256.827, 284 274.444, 305.711 274.118 C 313.806 273.997, 315.575 274.931, 316.304 279.712 C 317.151 285.263, 318.196 290.778, 325.890 330.347 C 333.667 370.345, 334.924 374.049, 343.262 381.546 C 351.041 388.539, 357.148 390.436, 372 390.471 C 383.004 390.497, 385.265 390.201, 390.890 388 C 398.301 385.101, 406.194 378.500, 409.129 372.746 C 410.246 370.558, 412.198 365.557, 413.467 361.634 C 419.575 342.750, 432.288 303.002, 433.500 299 C 438.104 283.794, 436.927 280.387, 414.273 243.326 C 409.011 234.718, 408.170 233.954, 403.289 233.355 C 398.276 232.739, 394.180 235.975, 393.343 241.213 C 392.804 244.587, 393.740 246.637, 403.612 263.713 C 417.205 287.224, 417.047 285.499, 408.123 312.823 C 404.652 323.450, 401.671 332, 401.498 331.823 C 401.326 331.645, 398.902 323.231, 396.111 313.125 C 393.320 303.018, 390.530 294.139, 389.910 293.392 C 389.291 292.645, 387.196 291.596, 385.256 291.060 C 380.248 289.678, 375.369 291.872, 373.498 296.349 C 372.151 299.574, 372.357 300.856, 377.086 318.635 C 388.439 361.322, 387.434 356.283, 385.434 360.498 C 380.773 370.320, 365.462 371.741, 356.939 363.142 L 353.329 359.500 343.661 310.500 C 337.028 276.883, 333.422 260.715, 332.175 259 C 328.758 254.300, 324.528 253.005, 312.500 252.980 C 300.190 252.953, 296.170 251.723, 289.626 245.976 C 282.147 239.409, 279.374 229.104, 282.341 218.898 C 284.404 211.804, 289.597 205.836, 296.776 202.311 L 302.500 199.500 382.337 199 L 462.174 198.500 464.587 195.694 C 467.195 192.662, 467.865 186.485, 465.970 182.945 C 463.270 177.899, 464.938 177.993, 379.800 178.089 C 318.718 178.158, 299.434 178.473, 295.860 179.458" fill="url(#teep-purple)" fill-rule="evenodd" clip-rule="evenodd"/>
  </g>
</svg>
