<svg xmlns="http://www.w3.org/2000/svg" width="835" height="285" viewBox="250 170 835 285" fill="none" shape-rendering="geometricPrecision">
  <defs>
    <linearGradient id="teep-purple" x1="0" y1="0" x2="1" y2="1">
      <stop offset="0" stop-color="#5B1FF2"/>
      <stop offset="0.48" stop-color="#6324EB"/>
      <stop offset="1" stop-color="#A78BFA"/>
    </linearGradient>
  </defs>
  <path d="M 295.860 179.458 C 272.230 185.971, 257.070 209.461, 260.842 233.720 C 264.434 256.827, 284 274.444, 305.711 274.118 C 313.806 273.997, 315.575 274.931, 316.304 279.712 C 317.151 285.263, 318.196 290.778, 325.890 330.347 C 333.667 370.345, 334.924 374.049, 343.262 381.546 C 351.041 388.539, 357.148 390.436, 372 390.471 C 383.004 390.497, 385.265 390.201, 390.890 388 C 398.301 385.101, 406.194 378.500, 409.129 372.746 C 410.246 370.558, 412.198 365.557, 413.467 361.634 C 419.575 342.750, 432.288 303.002, 433.500 299 C 438.104 283.794, 436.927 280.387, 414.273 243.326 C 409.011 234.718, 408.170 233.954, 403.289 233.355 C 398.276 232.739, 394.180 235.975, 393.343 241.213 C 392.804 244.587, 393.740 246.637, 403.612 263.713 C 417.205 287.224, 417.047 285.499, 408.123 312.823 C 404.652 323.450, 401.671 332, 401.498 331.823 C 401.326 331.645, 398.902 323.231, 396.111 313.125 C 393.320 303.018, 390.530 294.139, 389.910 293.392 C 389.291 292.645, 387.196 291.596, 385.256 291.060 C 380.248 289.678, 375.369 291.872, 373.498 296.349 C 372.151 299.574, 372.357 300.856, 377.086 318.635 C 388.439 361.322, 387.434 356.283, 385.434 360.498 C 380.773 370.320, 365.462 371.741, 356.939 363.142 L 353.329 359.500 343.661 310.500 C 337.028 276.883, 333.422 260.715, 332.175 259 C 328.758 254.300, 324.528 253.005, 312.500 252.980 C 300.190 252.953, 296.170 251.723, 289.626 245.976 C 282.147 239.409, 279.374 229.104, 282.341 218.898 C 284.404 211.804, 289.597 205.836, 296.776 202.311 L 302.500 199.500 382.337 199 L 462.174 198.500 464.587 195.694 C 467.195 192.662, 467.865 186.485, 465.970 182.945 C 463.270 177.899, 464.938 177.993, 379.800 178.089 C 318.718 178.158, 299.434 178.473, 295.860 179.458" fill="url(#teep-purple)" fill-rule="evenodd" clip-rule="evenodd"/>
  <path d="M 536.655 232.829 C 535.334 234.289, 535 236.798, 535 245.270 C 535 252.661, 535.379 256.127, 536.250 256.691 C 536.938 257.136, 548.975 257.725, 563 258 L 588.500 258.500 588.730 326.899 C 588.939 389.275, 589.107 395.461, 590.635 397.149 C 592.056 398.720, 593.853 399, 602.500 399 C 611.102 399, 612.948 398.715, 614.345 397.171 C 615.851 395.507, 616 389.167, 616 326.671 L 616 258 641.845 258 C 673.112 258, 671 258.991, 671 244.326 C 671 235.893, 670.711 234.048, 669.171 232.655 C 667.509 231.151, 661.456 231, 602.826 231 C 541.594 231, 538.226 231.093, 536.655 232.829 M 706.500 277.608 C 702.650 278.402, 695.675 280.912, 691 283.185 C 667.745 294.491, 654.417 319.830, 657.992 345.938 C 659.488 356.865, 662.544 365.042, 668.459 373.939 C 689.159 405.075, 739.410 409.991, 766.513 383.531 C 773.246 376.957, 773.451 374.937, 767.750 371.354 C 765.413 369.885, 761.523 367.179, 759.106 365.341 C 756.690 363.504, 754.364 362, 753.937 362 C 753.511 362, 750.538 364.252, 747.331 367.003 C 739.187 373.992, 732.811 376.265, 721.342 376.270 C 713.227 376.274, 711.444 375.928, 705.690 373.236 C 695.593 368.511, 688.842 360.479, 685.529 349.250 L 684.865 347 730.861 347 C 771.342 347, 777.046 346.812, 778.429 345.429 C 779.617 344.240, 780 341.731, 780 335.139 C 780 296.007, 746.062 269.443, 706.500 277.608 M 851 277.497 C 826.838 282.362, 807.951 300.139, 802.535 323.114 C 799.116 337.620, 801.350 355.244, 808.287 368.493 C 812.691 376.903, 824.668 388.642, 833.500 393.204 C 844.986 399.138, 850.737 400.428, 865.500 400.382 C 876.845 400.346, 879.467 400.009, 886.096 397.729 C 890.274 396.293, 896.359 393.555, 899.617 391.645 C 906.398 387.671, 916 378.524, 916 376.037 C 916 374.691, 905.158 366.470, 898.325 362.634 C 897.679 362.272, 895.047 363.796, 892.475 366.021 C 876.885 379.515, 855.040 380.142, 840.294 367.519 C 836.367 364.158, 830.832 354.954, 829.608 349.750 L 828.962 347 874.826 347 C 929.455 347, 924.557 348.375, 923.742 333.272 C 923.117 321.709, 920.569 312.957, 915.282 304.216 C 902.287 282.731, 877.067 272.248, 851 277.497 M 1003.181 277.052 C 995.321 278.458, 984.181 284.063, 978.750 289.346 L 974 293.966 974 288.183 C 974 285.002, 973.460 281.860, 972.800 281.200 C 972.004 280.404, 967.668 280, 959.907 280 C 950.167 280, 948.113 280.264, 947.607 281.582 C 947.273 282.452, 947 318.362, 947 361.382 C 947 420.885, 947.287 439.887, 948.200 440.800 C 950.132 442.732, 970.437 442.420, 972.429 440.429 C 973.779 439.078, 974 435.076, 974 411.929 C 974 397.118, 974.202 385, 974.448 385 C 974.695 385, 976.115 386.129, 977.604 387.509 C 982.414 391.967, 989.039 395.848, 995.847 398.197 C 1004.453 401.166, 1021.277 401.368, 1030.500 398.614 C 1049.403 392.970, 1062.304 380.014, 1069.162 359.788 C 1071.952 351.562, 1072.318 349.185, 1072.365 339 C 1072.427 325.688, 1070.801 318.225, 1065.458 307.295 C 1056.414 288.797, 1038.536 277.426, 1017 276.476 C 1012.325 276.270, 1006.106 276.529, 1003.181 277.052 M 712.132 301.020 C 701.808 303.186, 692.366 310.435, 688.130 319.447 C 686.958 321.939, 686 324.433, 686 324.989 C 686 325.650, 697.429 326, 719 326 C 756.584 326, 754.149 326.706, 749.405 317.186 C 743.413 305.161, 726.778 297.946, 712.132 301.020 M 856.270 300.998 C 844.067 303.568, 835.288 310.818, 830.533 322.250 L 828.973 326 862.487 326 C 895.604 326, 896 325.976, 896 323.950 C 896 321.197, 893.448 316.409, 889.223 311.239 C 882.621 303.160, 867.829 298.563, 856.270 300.998 M 1002.045 301.051 C 982.424 305.080, 970.213 324.123, 973.808 345.088 C 975.481 354.841, 979.112 362.016, 985.098 367.399 C 992.406 373.969, 999.278 376.251, 1010.500 375.834 C 1021.178 375.437, 1027.018 373.035, 1033.802 366.251 C 1040.682 359.370, 1043.271 352.543, 1043.781 339.928 C 1044.159 330.585, 1043.943 328.726, 1041.924 323.928 C 1035.888 309.594, 1026.124 302.032, 1011.871 300.655 C 1008.917 300.370, 1004.495 300.548, 1002.045 301.051" fill="#080D35" fill-rule="evenodd" clip-rule="evenodd"/>
</svg>
